<svg width="70" height="70" viewBox="0 0 114 114" fill="none" xmlns="http://www.w3.org/2000/svg">
<path d="M73.4 57C73.4 66.0575 66.0575 73.4 57 73.4C47.9425 73.4 40.6 66.0575 40.6 57C40.6 47.9425 47.9425 40.6 57 40.6C66.0575 40.6 73.4 47.9425 73.4 57Z" fill="#F5F5F5" stroke="#191919" stroke-width="0.2"/>
<circle cx="57" cy="57" r="15.7" fill="#F5F5F5" stroke="#191919" stroke-width="0.6"/>
<circle cx="57" cy="57" r="14.85" fill="#F5F5F5" stroke="#191919" stroke-width="0.3"/>
<path d="M46.6759 62.775V61.425H46.7009V62.0875H47.6609V61.425H47.6859V62.775H47.6609V62.1125H46.7009V62.775H46.6759ZM46.8834 63C46.9151 63 46.9376 62.9933 46.9509 62.98C46.9659 62.965 46.9734 62.9417 46.9734 62.91V62.355H47.3909V62.91C47.3909 62.9417 47.3976 62.965 47.4109 62.98C47.4259 62.9933 47.4492 63 47.4809 63H47.8684C47.9001 63 47.9226 62.9933 47.9359 62.98C47.9509 62.965 47.9584 62.9417 47.9584 62.91V61.29C47.9584 61.2583 47.9509 61.2358 47.9359 61.2225C47.9226 61.2075 47.9001 61.2 47.8684 61.2H47.4809C47.4492 61.2 47.4259 61.2075 47.4109 61.2225C47.3976 61.2358 47.3909 61.2583 47.3909 61.29V61.8325H46.9734V61.29C46.9734 61.2583 46.9659 61.2358 46.9509 61.2225C46.9376 61.2075 46.9151 61.2 46.8834 61.2H46.4959C46.4642 61.2 46.4409 61.2075 46.4259 61.2225C46.4126 61.2358 46.4059 61.2583 46.4059 61.29V62.91C46.4059 62.9417 46.4126 62.965 46.4259 62.98C46.4409 62.9933 46.4642 63 46.4959 63H46.8834ZM46.4959 63.025C46.4559 63.025 46.4267 63.0158 46.4084 62.9975C46.3901 62.9792 46.3809 62.95 46.3809 62.91V61.29C46.3809 61.25 46.3901 61.2208 46.4084 61.2025C46.4267 61.1842 46.4559 61.175 46.4959 61.175H46.8834C46.9234 61.175 46.9526 61.1842 46.9709 61.2025C46.9892 61.2208 46.9984 61.25 46.9984 61.29V61.8075H47.3659V61.29C47.3659 61.25 47.3751 61.2208 47.3934 61.2025C47.4117 61.1842 47.4409 61.175 47.4809 61.175H47.8684C47.9084 61.175 47.9376 61.1842 47.9559 61.2025C47.9742 61.2208 47.9834 61.25 47.9834 61.29V62.91C47.9834 62.95 47.9742 62.9792 47.9559 62.9975C47.9376 63.0158 47.9084 63.025 47.8684 63.025H47.4809C47.4409 63.025 47.4117 63.0158 47.3934 62.9975C47.3751 62.9792 47.3659 62.95 47.3659 62.91V62.38H46.9984V62.91C46.9984 62.95 46.9892 62.9792 46.9709 62.9975C46.9526 63.0158 46.9234 63.025 46.8834 63.025H46.4959ZM48.3929 63.025C48.3529 63.025 48.3237 63.0158 48.3054 62.9975C48.287 62.9792 48.2779 62.95 48.2779 62.91V61.29C48.2779 61.25 48.287 61.2208 48.3054 61.2025C48.3237 61.1842 48.3529 61.175 48.3929 61.175H49.5529C49.5929 61.175 49.622 61.1842 49.6404 61.2025C49.6587 61.2208 49.6679 61.25 49.6679 61.29V61.5825C49.6679 61.6225 49.6587 61.6517 49.6404 61.67C49.622 61.6883 49.5929 61.6975 49.5529 61.6975H48.8879V61.84H49.3504C49.3904 61.84 49.4195 61.8492 49.4379 61.8675C49.4562 61.8858 49.4654 61.915 49.4654 61.955V62.2225C49.4654 62.2625 49.4562 62.2917 49.4379 62.31C49.4195 62.3283 49.3904 62.3375 49.3504 62.3375H48.8879V62.5025H49.5529C49.5929 62.5025 49.622 62.5117 49.6404 62.53C49.6587 62.5483 49.6679 62.5775 49.6679 62.6175V62.91C49.6679 62.95 49.6587 62.9792 49.6404 62.9975C49.622 63.0158 49.5929 63.025 49.5529 63.025H48.3929ZM49.5529 63C49.5845 63 49.607 62.9933 49.6204 62.98C49.6354 62.965 49.6429 62.9417 49.6429 62.91V62.6175C49.6429 62.5858 49.6354 62.5633 49.6204 62.55C49.607 62.535 49.5845 62.5275 49.5529 62.5275H48.8629V62.3125H49.3504C49.382 62.3125 49.4045 62.3058 49.4179 62.2925C49.4329 62.2775 49.4404 62.2542 49.4404 62.2225V61.955C49.4404 61.9233 49.4329 61.9008 49.4179 61.8875C49.4045 61.8725 49.382 61.865 49.3504 61.865H48.8629V61.6725H49.5529C49.5845 61.6725 49.607 61.6658 49.6204 61.6525C49.6354 61.6375 49.6429 61.6142 49.6429 61.5825V61.29C49.6429 61.2583 49.6354 61.2358 49.6204 61.2225C49.607 61.2075 49.5845 61.2 49.5529 61.2H48.3929C48.3612 61.2 48.3379 61.2075 48.3229 61.2225C48.3095 61.2358 48.3029 61.2583 48.3029 61.29V62.91C48.3029 62.9417 48.3095 62.965 48.3229 62.98C48.3379 62.9933 48.3612 63 48.3929 63H49.5529ZM49.4179 62.75V62.775H48.5754V61.425H49.4179V61.45H48.6004V62.0775H49.2154V62.1025H48.6004V62.75H49.4179ZM50.1911 62.2425V62.32H51.1661V62.2425C51.1661 62.1975 51.1619 62.1558 51.1536 62.1175C51.1469 62.0792 51.1378 62.0433 51.1261 62.01L50.9536 61.6025C50.9353 61.5592 50.9161 61.5233 50.8961 61.495C50.8761 61.465 50.8428 61.45 50.7961 61.45H50.5511C50.5011 61.45 50.4661 61.465 50.4461 61.495C50.4261 61.5233 50.4078 61.5583 50.3911 61.6L50.2311 62.01C50.2194 62.0433 50.2094 62.0792 50.2011 62.1175C50.1944 62.1558 50.1911 62.1975 50.1911 62.2425ZM50.5911 61.725C50.5978 61.71 50.6044 61.6992 50.6111 61.6925C50.6194 61.6858 50.6286 61.6825 50.6386 61.6825H50.7011C50.7111 61.6825 50.7194 61.6858 50.7261 61.6925C50.7344 61.6992 50.7419 61.71 50.7486 61.725L50.8661 62.105H50.4736L50.5911 61.725ZM50.7236 61.7325L50.7261 61.735C50.7228 61.7283 50.7194 61.7225 50.7161 61.7175C50.7128 61.7108 50.7078 61.7075 50.7011 61.7075H50.6386C50.6319 61.7075 50.6269 61.7108 50.6236 61.7175C50.6203 61.7225 50.6169 61.7283 50.6136 61.735L50.6161 61.7325L50.5086 62.08H50.8311L50.7236 61.7325ZM51.1661 62.775V62.345H50.1911V62.775H50.1661V62.2425C50.1661 62.1958 50.1694 62.1533 50.1761 62.115C50.1844 62.075 50.1953 62.0367 50.2086 62L50.3686 61.59C50.3869 61.5433 50.4078 61.5042 50.4311 61.4725C50.4544 61.4408 50.4944 61.425 50.5511 61.425H50.7961C50.8511 61.425 50.8894 61.4408 50.9111 61.4725C50.9344 61.5042 50.9561 61.5442 50.9761 61.5925L51.1486 62C51.1619 62.0367 51.1719 62.075 51.1786 62.115C51.1869 62.1533 51.1911 62.1958 51.1911 62.2425V62.775H51.1661ZM50.4486 62.91V62.56H50.8911V62.91C50.8911 62.9417 50.8986 62.965 50.9136 62.98C50.9303 62.9933 50.9553 63 50.9886 63H51.3661C51.3978 63 51.4203 62.9933 51.4336 62.98C51.4486 62.965 51.4561 62.9417 51.4561 62.91V62.25C51.4561 62.2 51.4478 62.1425 51.4311 62.0775C51.4161 62.0125 51.3919 61.9367 51.3586 61.85L51.1411 61.2825C51.1311 61.2542 51.1153 61.2333 51.0936 61.22C51.0736 61.2067 51.0478 61.2 51.0161 61.2H50.3436C50.3103 61.2 50.2828 61.2067 50.2611 61.22C50.2411 61.2333 50.2261 61.2542 50.2161 61.2825L49.9986 61.85C49.9653 61.9367 49.9403 62.0125 49.9236 62.0775C49.9086 62.1425 49.9011 62.2 49.9011 62.25V62.91C49.9011 62.9417 49.9078 62.965 49.9211 62.98C49.9361 62.9933 49.9594 63 49.9911 63H50.3586C50.3903 63 50.4128 62.9933 50.4261 62.98C50.4411 62.965 50.4486 62.9417 50.4486 62.91ZM49.9911 63.025C49.9511 63.025 49.9219 63.0158 49.9036 62.9975C49.8853 62.9792 49.8761 62.95 49.8761 62.91V62.25C49.8761 62.1983 49.8836 62.14 49.8986 62.075C49.9153 62.0083 49.9411 61.93 49.9761 61.84L50.1936 61.275C50.2053 61.24 50.2228 61.215 50.2461 61.2C50.2711 61.1833 50.3036 61.175 50.3436 61.175H51.0161C51.0544 61.175 51.0853 61.1833 51.1086 61.2C51.1336 61.215 51.1519 61.2392 51.1636 61.2725L51.3811 61.84C51.4161 61.93 51.4411 62.0083 51.4561 62.075C51.4728 62.14 51.4811 62.1983 51.4811 62.25V62.91C51.4811 62.95 51.4719 62.9792 51.4536 62.9975C51.4353 63.0158 51.4061 63.025 51.3661 63.025H50.9886C50.9469 63.025 50.9161 63.0158 50.8961 62.9975C50.8761 62.9775 50.8661 62.9483 50.8661 62.91V62.585H50.4736V62.91C50.4736 62.95 50.4644 62.9792 50.4461 62.9975C50.4278 63.0158 50.3986 63.025 50.3586 63.025H49.9911ZM52.9554 62.9275C52.9404 62.9642 52.9212 62.9892 52.8979 63.0025C52.8745 63.0175 52.8437 63.025 52.8054 63.025H52.1554C52.117 63.025 52.0862 63.0175 52.0629 63.0025C52.0395 62.9892 52.0204 62.9642 52.0054 62.9275L51.7604 62.315C51.7454 62.2767 51.732 62.2442 51.7204 62.2175C51.7104 62.1892 51.702 62.1625 51.6954 62.1375C51.6887 62.1108 51.6837 62.0833 51.6804 62.055C51.6787 62.025 51.6779 61.99 51.6779 61.95V61.29C51.6779 61.25 51.687 61.2208 51.7054 61.2025C51.7237 61.1842 51.7529 61.175 51.7929 61.175H52.1904C52.2304 61.175 52.2604 61.185 52.2804 61.205C52.302 61.2233 52.3129 61.2517 52.3129 61.29V61.98C52.3129 61.9967 52.3145 62.0125 52.3179 62.0275C52.3212 62.0425 52.3254 62.0583 52.3304 62.075L52.4504 62.425C52.452 62.4333 52.4545 62.44 52.4579 62.445C52.4612 62.4483 52.4662 62.45 52.4729 62.45H52.5004C52.507 62.45 52.512 62.4483 52.5154 62.445C52.5187 62.44 52.522 62.4333 52.5254 62.425L52.6429 62.0725C52.6479 62.0558 52.652 62.04 52.6554 62.025C52.6587 62.01 52.6604 61.9942 52.6604 61.9775V61.29C52.6604 61.25 52.6695 61.2208 52.6879 61.2025C52.7062 61.1842 52.7354 61.175 52.7754 61.175H53.1679C53.2095 61.175 53.2387 61.1842 53.2554 61.2025C53.2737 61.2208 53.2829 61.25 53.2829 61.29V61.95C53.2829 61.99 53.2812 62.025 53.2779 62.055C53.2762 62.0833 53.272 62.1108 53.2654 62.1375C53.2587 62.1625 53.2495 62.1892 53.2379 62.2175C53.2279 62.2442 53.2154 62.2767 53.2004 62.315L52.9554 62.9275ZM52.8054 63C52.837 63 52.8629 62.9942 52.8829 62.9825C52.9045 62.9708 52.9212 62.9492 52.9329 62.9175L53.1779 62.305C53.1929 62.2683 53.2054 62.2367 53.2154 62.21C53.2254 62.1817 53.2337 62.155 53.2404 62.13C53.247 62.105 53.2512 62.0792 53.2529 62.0525C53.2562 62.0242 53.2579 61.99 53.2579 61.95V61.29C53.2579 61.2583 53.2504 61.2358 53.2354 61.2225C53.222 61.2075 53.1995 61.2 53.1679 61.2H52.7754C52.7437 61.2 52.7204 61.2075 52.7054 61.2225C52.692 61.2358 52.6854 61.2583 52.6854 61.29V61.9775C52.6854 61.9942 52.6837 62.0108 52.6804 62.0275C52.677 62.0442 52.672 62.0617 52.6654 62.08L52.5479 62.4325C52.5429 62.4492 52.537 62.4608 52.5304 62.4675C52.5237 62.4725 52.5137 62.475 52.5004 62.475H52.4729C52.4595 62.475 52.4495 62.4725 52.4429 62.4675C52.4362 62.4608 52.4304 62.4492 52.4254 62.4325L52.3079 62.0825C52.3012 62.0642 52.2962 62.0467 52.2929 62.03C52.2895 62.0133 52.2879 61.9967 52.2879 61.98V61.29C52.2879 61.2583 52.2795 61.2358 52.2629 61.2225C52.2462 61.2075 52.222 61.2 52.1904 61.2H51.7929C51.7612 61.2 51.7379 61.2075 51.7229 61.2225C51.7095 61.2358 51.7029 61.2583 51.7029 61.29V61.95C51.7029 61.99 51.7037 62.0242 51.7054 62.0525C51.7087 62.0792 51.7137 62.105 51.7204 62.13C51.727 62.155 51.7354 62.1817 51.7454 62.21C51.7554 62.2367 51.7679 62.2683 51.7829 62.305L52.0279 62.9175C52.0395 62.9492 52.0554 62.9708 52.0754 62.9825C52.097 62.9942 52.1237 63 52.1554 63H52.8054ZM51.9854 61.425H52.0104V61.965C52.0104 62.0083 52.0137 62.05 52.0204 62.09C52.027 62.1283 52.037 62.1642 52.0504 62.1975L52.2154 62.5975C52.232 62.6408 52.2504 62.6775 52.2704 62.7075C52.292 62.7358 52.3262 62.75 52.3729 62.75H52.5929C52.6395 62.75 52.6729 62.7358 52.6929 62.7075C52.7145 62.6775 52.7337 62.6408 52.7504 62.5975L52.9154 62.1975C52.9287 62.1642 52.9387 62.1283 52.9454 62.09C52.952 62.05 52.9554 62.0083 52.9554 61.965V61.425H52.9804V61.965C52.9804 62.0117 52.977 62.055 52.9704 62.095C52.9654 62.1333 52.9554 62.1708 52.9404 62.2075L52.7754 62.6075C52.7554 62.6558 52.7329 62.6958 52.7079 62.7275C52.6829 62.7592 52.6445 62.775 52.5929 62.775H52.3729C52.3212 62.775 52.2829 62.7592 52.2579 62.7275C52.2329 62.6958 52.2104 62.6558 52.1904 62.6075L52.0254 62.2075C52.0104 62.1708 51.9995 62.1333 51.9929 62.095C51.9879 62.055 51.9854 62.0117 51.9854 61.965V61.425ZM53.6565 63.025C53.6165 63.025 53.5874 63.0158 53.569 62.9975C53.5507 62.9792 53.5415 62.95 53.5415 62.91V61.29C53.5415 61.25 53.5507 61.2208 53.569 61.2025C53.5874 61.1842 53.6165 61.175 53.6565 61.175H54.8165C54.8565 61.175 54.8857 61.1842 54.904 61.2025C54.9224 61.2208 54.9315 61.25 54.9315 61.29V61.5825C54.9315 61.6225 54.9224 61.6517 54.904 61.67C54.8857 61.6883 54.8565 61.6975 54.8165 61.6975H54.1515V61.84H54.614C54.654 61.84 54.6832 61.8492 54.7015 61.8675C54.7199 61.8858 54.729 61.915 54.729 61.955V62.2225C54.729 62.2625 54.7199 62.2917 54.7015 62.31C54.6832 62.3283 54.654 62.3375 54.614 62.3375H54.1515V62.5025H54.8165C54.8565 62.5025 54.8857 62.5117 54.904 62.53C54.9224 62.5483 54.9315 62.5775 54.9315 62.6175V62.91C54.9315 62.95 54.9224 62.9792 54.904 62.9975C54.8857 63.0158 54.8565 63.025 54.8165 63.025H53.6565ZM54.8165 63C54.8482 63 54.8707 62.9933 54.884 62.98C54.899 62.965 54.9065 62.9417 54.9065 62.91V62.6175C54.9065 62.5858 54.899 62.5633 54.884 62.55C54.8707 62.535 54.8482 62.5275 54.8165 62.5275H54.1265V62.3125H54.614C54.6457 62.3125 54.6682 62.3058 54.6815 62.2925C54.6965 62.2775 54.704 62.2542 54.704 62.2225V61.955C54.704 61.9233 54.6965 61.9008 54.6815 61.8875C54.6682 61.8725 54.6457 61.865 54.614 61.865H54.1265V61.6725H54.8165C54.8482 61.6725 54.8707 61.6658 54.884 61.6525C54.899 61.6375 54.9065 61.6142 54.9065 61.5825V61.29C54.9065 61.2583 54.899 61.2358 54.884 61.2225C54.8707 61.2075 54.8482 61.2 54.8165 61.2H53.6565C53.6249 61.2 53.6015 61.2075 53.5865 61.2225C53.5732 61.2358 53.5665 61.2583 53.5665 61.29V62.91C53.5665 62.9417 53.5732 62.965 53.5865 62.98C53.6015 62.9933 53.6249 63 53.6565 63H54.8165ZM54.6815 62.75V62.775H53.839V61.425H54.6815V61.45H53.864V62.0775H54.479V62.1025H53.864V62.75H54.6815ZM55.5323 61.445L56.4523 62.48V61.425H56.4773V62.775H56.4523V62.5175L55.5073 61.4575C55.5056 61.4558 55.5031 61.4542 55.4998 61.4525C55.4981 61.4508 55.4965 61.45 55.4948 61.45C55.4931 61.45 55.4915 61.4508 55.4898 61.4525C55.4898 61.4542 55.4898 61.4558 55.4898 61.4575V62.775H55.4648V61.4525C55.4648 61.4425 55.4681 61.435 55.4748 61.43C55.4815 61.425 55.4881 61.4225 55.4948 61.4225C55.5015 61.4225 55.5073 61.4242 55.5123 61.4275C55.5173 61.4308 55.524 61.4367 55.5323 61.445ZM55.6673 63C55.699 63 55.7215 62.9933 55.7348 62.98C55.7498 62.965 55.7573 62.9417 55.7573 62.91V62.085L56.1848 62.6025V62.91C56.1848 62.9417 56.1915 62.965 56.2048 62.98C56.2198 62.9933 56.2431 63 56.2748 63H56.6498C56.6815 63 56.704 62.9933 56.7173 62.98C56.7323 62.965 56.7398 62.9417 56.7398 62.91V61.29C56.7398 61.2583 56.7323 61.2358 56.7173 61.2225C56.704 61.2075 56.6815 61.2 56.6498 61.2H56.2748C56.2431 61.2 56.2198 61.2075 56.2048 61.2225C56.1915 61.2358 56.1848 61.2583 56.1848 61.29V61.8225L55.6998 61.2675C55.6781 61.2425 55.6556 61.225 55.6323 61.215C55.6106 61.205 55.584 61.2 55.5523 61.2H55.2923C55.2606 61.2 55.2373 61.2075 55.2223 61.2225C55.209 61.2358 55.2023 61.2583 55.2023 61.29V62.91C55.2023 62.9417 55.209 62.965 55.2223 62.98C55.2373 62.9933 55.2606 63 55.2923 63H55.6673ZM55.6673 63.025H55.2923C55.2523 63.025 55.2231 63.0158 55.2048 62.9975C55.1865 62.9792 55.1773 62.95 55.1773 62.91V61.29C55.1773 61.25 55.1865 61.2208 55.2048 61.2025C55.2231 61.1842 55.2523 61.175 55.2923 61.175H55.5523C55.589 61.175 55.6198 61.1808 55.6448 61.1925C55.6698 61.2042 55.6948 61.2233 55.7198 61.25L56.1598 61.7525V61.29C56.1598 61.25 56.169 61.2208 56.1873 61.2025C56.2056 61.1842 56.2348 61.175 56.2748 61.175H56.6498C56.6898 61.175 56.719 61.1842 56.7373 61.2025C56.7556 61.2208 56.7648 61.25 56.7648 61.29V62.91C56.7648 62.95 56.7556 62.9792 56.7373 62.9975C56.719 63.0158 56.6898 63.025 56.6498 63.025H56.2748C56.2348 63.025 56.2056 63.0158 56.1873 62.9975C56.169 62.9792 56.1598 62.95 56.1598 62.91V62.6125L55.7823 62.155V62.91C55.7823 62.95 55.7731 62.9792 55.7548 62.9975C55.7365 63.0158 55.7073 63.025 55.6673 63.025ZM59.2186 62.49C59.2186 62.67 59.1661 62.8042 59.0611 62.8925C58.9578 62.9808 58.797 63.025 58.5786 63.025H57.7361C57.6961 63.025 57.667 63.0158 57.6486 62.9975C57.6303 62.9792 57.6211 62.95 57.6211 62.91V61.29C57.6211 61.25 57.6303 61.2208 57.6486 61.2025C57.667 61.1842 57.6961 61.175 57.7361 61.175H58.5786C58.797 61.175 58.9578 61.2192 59.0611 61.3075C59.1661 61.3958 59.2186 61.53 59.2186 61.71V62.49ZM58.5786 63C58.787 63 58.9411 62.9583 59.0411 62.875C59.1428 62.7917 59.1936 62.6633 59.1936 62.49V61.71C59.1936 61.5367 59.1428 61.4083 59.0411 61.325C58.9411 61.2417 58.787 61.2 58.5786 61.2H57.7361C57.7045 61.2 57.6811 61.2075 57.6661 61.2225C57.6528 61.2358 57.6461 61.2583 57.6461 61.29V62.91C57.6461 62.9417 57.6528 62.965 57.6661 62.98C57.6811 62.9933 57.7045 63 57.7361 63H58.5786ZM57.9186 62.775V61.425H58.5236C58.6086 61.425 58.677 61.4342 58.7286 61.4525C58.782 61.4708 58.8228 61.4958 58.8511 61.5275C58.8795 61.5575 58.8986 61.5942 58.9086 61.6375C58.9186 61.6792 58.9236 61.7242 58.9236 61.7725V62.435C58.9236 62.4833 58.9186 62.5283 58.9086 62.57C58.9003 62.6117 58.882 62.6475 58.8536 62.6775C58.8253 62.7075 58.7845 62.7317 58.7311 62.75C58.6778 62.7667 58.6086 62.775 58.5236 62.775H57.9186ZM58.5236 61.45H57.9436V62.75H58.5236C58.6036 62.75 58.6678 62.7425 58.7161 62.7275C58.7661 62.7108 58.8045 62.6892 58.8311 62.6625C58.8578 62.6342 58.8753 62.6008 58.8836 62.5625C58.8936 62.5225 58.8986 62.48 58.8986 62.435V61.7725C58.8986 61.7275 58.8936 61.685 58.8836 61.645C58.8736 61.605 58.8553 61.5708 58.8286 61.5425C58.802 61.5142 58.7636 61.4917 58.7136 61.475C58.6653 61.4583 58.602 61.45 58.5236 61.45ZM58.2136 61.6775H58.5111C58.5511 61.6775 58.5803 61.6875 58.5986 61.7075C58.6186 61.7258 58.6286 61.7558 58.6286 61.7975V62.405C58.6286 62.4467 58.6186 62.4775 58.5986 62.4975C58.5803 62.5175 58.5511 62.5275 58.5111 62.5275H58.2136V61.6775ZM58.5111 61.7025H58.2386V62.5025H58.5111C58.5428 62.5025 58.5661 62.495 58.5811 62.48C58.5961 62.4633 58.6036 62.4383 58.6036 62.405V61.7975C58.6036 61.7658 58.5961 61.7425 58.5811 61.7275C58.5661 61.7108 58.5428 61.7025 58.5111 61.7025ZM59.6014 63.025C59.5614 63.025 59.5322 63.0158 59.5139 62.9975C59.4955 62.9792 59.4864 62.95 59.4864 62.91V61.29C59.4864 61.25 59.4955 61.2208 59.5139 61.2025C59.5322 61.1842 59.5614 61.175 59.6014 61.175H60.7614C60.8014 61.175 60.8305 61.1842 60.8489 61.2025C60.8672 61.2208 60.8764 61.25 60.8764 61.29V61.5825C60.8764 61.6225 60.8672 61.6517 60.8489 61.67C60.8305 61.6883 60.8014 61.6975 60.7614 61.6975H60.0964V61.84H60.5589C60.5989 61.84 60.628 61.8492 60.6464 61.8675C60.6647 61.8858 60.6739 61.915 60.6739 61.955V62.2225C60.6739 62.2625 60.6647 62.2917 60.6464 62.31C60.628 62.3283 60.5989 62.3375 60.5589 62.3375H60.0964V62.5025H60.7614C60.8014 62.5025 60.8305 62.5117 60.8489 62.53C60.8672 62.5483 60.8764 62.5775 60.8764 62.6175V62.91C60.8764 62.95 60.8672 62.9792 60.8489 62.9975C60.8305 63.0158 60.8014 63.025 60.7614 63.025H59.6014ZM60.7614 63C60.793 63 60.8155 62.9933 60.8289 62.98C60.8439 62.965 60.8514 62.9417 60.8514 62.91V62.6175C60.8514 62.5858 60.8439 62.5633 60.8289 62.55C60.8155 62.535 60.793 62.5275 60.7614 62.5275H60.0714V62.3125H60.5589C60.5905 62.3125 60.613 62.3058 60.6264 62.2925C60.6414 62.2775 60.6489 62.2542 60.6489 62.2225V61.955C60.6489 61.9233 60.6414 61.9008 60.6264 61.8875C60.613 61.8725 60.5905 61.865 60.5589 61.865H60.0714V61.6725H60.7614C60.793 61.6725 60.8155 61.6658 60.8289 61.6525C60.8439 61.6375 60.8514 61.6142 60.8514 61.5825V61.29C60.8514 61.2583 60.8439 61.2358 60.8289 61.2225C60.8155 61.2075 60.793 61.2 60.7614 61.2H59.6014C59.5697 61.2 59.5464 61.2075 59.5314 61.2225C59.518 61.2358 59.5114 61.2583 59.5114 61.29V62.91C59.5114 62.9417 59.518 62.965 59.5314 62.98C59.5464 62.9933 59.5697 63 59.6014 63H60.7614ZM60.6264 62.75V62.775H59.7839V61.425H60.6264V61.45H59.8089V62.0775H60.4239V62.1025H59.8089V62.75H60.6264ZM62.5246 62.56C62.5246 62.71 62.4763 62.825 62.3796 62.905C62.2829 62.985 62.1504 63.025 61.9821 63.025H61.1921C61.1521 63.025 61.1229 63.0158 61.1046 62.9975C61.0863 62.9792 61.0771 62.95 61.0771 62.91V62.6175C61.0771 62.5775 61.0863 62.5483 61.1046 62.53C61.1229 62.5117 61.1521 62.5025 61.1921 62.5025H61.8646C61.8779 62.5025 61.8879 62.4975 61.8946 62.4875C61.9013 62.4775 61.9046 62.4667 61.9046 62.455C61.9046 62.4367 61.9013 62.4225 61.8946 62.4125C61.8879 62.4025 61.8771 62.3967 61.8621 62.395L61.4871 62.3425C61.3621 62.3242 61.2621 62.2833 61.1871 62.22C61.1138 62.155 61.0771 62.0492 61.0771 61.9025V61.64C61.0771 61.49 61.1246 61.375 61.2196 61.295C61.3163 61.215 61.4496 61.175 61.6196 61.175H62.3196C62.3596 61.175 62.3888 61.1842 62.4071 61.2025C62.4254 61.2208 62.4346 61.25 62.4346 61.29V61.5875C62.4346 61.6275 62.4254 61.6567 62.4071 61.675C62.3888 61.6933 62.3596 61.7025 62.3196 61.7025H61.7371C61.7238 61.7025 61.7129 61.7075 61.7046 61.7175C61.6979 61.7275 61.6946 61.7392 61.6946 61.7525C61.6946 61.7675 61.6979 61.78 61.7046 61.79C61.7129 61.8 61.7246 61.8058 61.7396 61.8075L62.1121 61.8575C62.2371 61.8758 62.3371 61.9175 62.4121 61.9825C62.4871 62.0458 62.5246 62.1508 62.5246 62.2975V62.56ZM61.9821 63C62.1421 63 62.2679 62.9625 62.3596 62.8875C62.4529 62.8108 62.4996 62.7017 62.4996 62.56V62.2975C62.4996 62.1575 62.4638 62.0575 62.3921 61.9975C62.3204 61.9375 62.2263 61.8992 62.1096 61.8825L61.7371 61.8325C61.7154 61.8308 61.6988 61.8225 61.6871 61.8075C61.6754 61.7925 61.6696 61.7742 61.6696 61.7525C61.6696 61.7308 61.6754 61.7133 61.6871 61.7C61.6988 61.685 61.7154 61.6775 61.7371 61.6775H62.3196C62.3513 61.6775 62.3738 61.6708 62.3871 61.6575C62.4021 61.6425 62.4096 61.6192 62.4096 61.5875V61.29C62.4096 61.2583 62.4021 61.2358 62.3871 61.2225C62.3738 61.2075 62.3513 61.2 62.3196 61.2H61.6196C61.4579 61.2 61.3313 61.2383 61.2396 61.315C61.1479 61.39 61.1021 61.4983 61.1021 61.64V61.9025C61.1021 62.0425 61.1371 62.1425 61.2071 62.2025C61.2788 62.2625 61.3729 62.3008 61.4896 62.3175L61.8646 62.37C61.8863 62.3717 61.9021 62.3792 61.9121 62.3925C61.9238 62.4058 61.9296 62.4267 61.9296 62.455C61.9296 62.475 61.9238 62.4925 61.9121 62.5075C61.9021 62.5208 61.8863 62.5275 61.8646 62.5275H61.1921C61.1604 62.5275 61.1371 62.535 61.1221 62.55C61.1088 62.5633 61.1021 62.5858 61.1021 62.6175V62.91C61.1021 62.9417 61.1088 62.965 61.1221 62.98C61.1371 62.9933 61.1604 63 61.1921 63H61.9821ZM62.1846 61.425V61.45H61.6296C61.5596 61.45 61.5038 61.4692 61.4621 61.5075C61.4204 61.5458 61.3996 61.5942 61.3996 61.6525V61.8575C61.3996 61.9158 61.4113 61.9567 61.4346 61.98C61.4579 62.0033 61.4888 62.0183 61.5271 62.025L62.0546 62.1325C62.1046 62.1425 62.1454 62.1642 62.1771 62.1975C62.2104 62.2308 62.2271 62.2908 62.2271 62.3775V62.5225C62.2271 62.5958 62.2021 62.6567 62.1521 62.705C62.1021 62.7517 62.0346 62.775 61.9496 62.775H61.3271V62.75H61.9496C62.0263 62.75 62.0871 62.7292 62.1321 62.6875C62.1788 62.6442 62.2021 62.5892 62.2021 62.5225V62.3775C62.2021 62.2992 62.1879 62.2458 62.1596 62.2175C62.1329 62.1875 62.0963 62.1675 62.0496 62.1575L61.5221 62.05C61.4788 62.0417 61.4429 62.025 61.4146 62C61.3879 61.9733 61.3746 61.9258 61.3746 61.8575V61.6525C61.3746 61.5858 61.3979 61.5317 61.4446 61.49C61.4913 61.4467 61.5529 61.425 61.6296 61.425H62.1846ZM62.8231 63.025C62.7831 63.025 62.7539 63.0158 62.7356 62.9975C62.7173 62.9792 62.7081 62.95 62.7081 62.91V62.6125C62.7081 62.5725 62.7173 62.5433 62.7356 62.525C62.7539 62.5067 62.7831 62.4975 62.8231 62.4975H63.0456V61.7075H62.8231C62.7831 61.7075 62.7539 61.6983 62.7356 61.68C62.7173 61.6617 62.7081 61.6325 62.7081 61.5925V61.29C62.7081 61.25 62.7173 61.2208 62.7356 61.2025C62.7539 61.1842 62.7831 61.175 62.8231 61.175H63.8881C63.9281 61.175 63.9573 61.1842 63.9756 61.2025C63.9939 61.2208 64.0031 61.25 64.0031 61.29V61.5925C64.0031 61.6325 63.9939 61.6617 63.9756 61.68C63.9573 61.6983 63.9281 61.7075 63.8881 61.7075H63.6706V62.4975H63.8881C63.9281 62.4975 63.9573 62.5067 63.9756 62.525C63.9939 62.5433 64.0031 62.5725 64.0031 62.6125V62.91C64.0031 62.95 63.9939 62.9792 63.9756 62.9975C63.9573 63.0158 63.9281 63.025 63.8881 63.025H62.8231ZM62.8231 63H63.8881C63.9198 63 63.9423 62.9933 63.9556 62.98C63.9706 62.965 63.9781 62.9417 63.9781 62.91V62.6125C63.9781 62.5808 63.9706 62.5583 63.9556 62.545C63.9423 62.53 63.9198 62.5225 63.8881 62.5225H63.6456V61.6825H63.8881C63.9198 61.6825 63.9423 61.6758 63.9556 61.6625C63.9706 61.6475 63.9781 61.6242 63.9781 61.5925V61.29C63.9781 61.2583 63.9706 61.2358 63.9556 61.2225C63.9423 61.2075 63.9198 61.2 63.8881 61.2H62.8231C62.7914 61.2 62.7681 61.2075 62.7531 61.2225C62.7398 61.2358 62.7331 61.2583 62.7331 61.29V61.5925C62.7331 61.6242 62.7398 61.6475 62.7531 61.6625C62.7681 61.6758 62.7914 61.6825 62.8231 61.6825H63.0706V62.5225H62.8231C62.7914 62.5225 62.7681 62.53 62.7531 62.545C62.7398 62.5583 62.7331 62.5808 62.7331 62.6125V62.91C62.7331 62.9417 62.7398 62.965 62.7531 62.98C62.7681 62.9933 62.7914 63 62.8231 63ZM63.7531 62.775H62.9581V62.75H63.3456V61.45H62.9581V61.425H63.7531V61.45H63.3706V62.75H63.7531V62.775ZM64.8743 63.025C64.6559 63.025 64.4943 62.9808 64.3893 62.8925C64.2859 62.8042 64.2343 62.67 64.2343 62.49V61.71C64.2343 61.53 64.2859 61.3958 64.3893 61.3075C64.4943 61.2192 64.6559 61.175 64.8743 61.175H65.4993C65.5393 61.175 65.5684 61.1842 65.5868 61.2025C65.6051 61.2208 65.6143 61.25 65.6143 61.29V61.5925C65.6143 61.6325 65.6051 61.6617 65.5868 61.68C65.5684 61.6983 65.5393 61.7075 65.4993 61.7075H64.9793C64.9376 61.7075 64.9059 61.7158 64.8843 61.7325C64.8626 61.7475 64.8518 61.7725 64.8518 61.8075V62.405C64.8518 62.4383 64.8584 62.4633 64.8718 62.48C64.8868 62.495 64.9101 62.5025 64.9418 62.5025H65.1593V62.1375C65.1593 62.0975 65.1684 62.0683 65.1868 62.05C65.2051 62.0317 65.2343 62.0225 65.2743 62.0225H65.6618C65.7018 62.0225 65.7309 62.0317 65.7493 62.05C65.7676 62.0683 65.7768 62.0975 65.7768 62.1375V62.91C65.7768 62.95 65.7676 62.9792 65.7493 62.9975C65.7309 63.0158 65.7018 63.025 65.6618 63.025H64.8743ZM65.6618 63C65.6934 63 65.7159 62.9933 65.7293 62.98C65.7443 62.965 65.7518 62.9417 65.7518 62.91V62.1375C65.7518 62.1058 65.7443 62.0833 65.7293 62.07C65.7159 62.055 65.6934 62.0475 65.6618 62.0475H65.2743C65.2426 62.0475 65.2193 62.055 65.2043 62.07C65.1909 62.0833 65.1843 62.1058 65.1843 62.1375V62.5275H64.9418C64.9034 62.5275 64.8743 62.5175 64.8543 62.4975C64.8359 62.4775 64.8268 62.4467 64.8268 62.405V61.8075C64.8268 61.7658 64.8393 61.735 64.8643 61.715C64.8893 61.6933 64.9276 61.6825 64.9793 61.6825H65.4993C65.5309 61.6825 65.5534 61.6758 65.5668 61.6625C65.5818 61.6475 65.5893 61.6242 65.5893 61.5925V61.29C65.5893 61.2583 65.5818 61.2358 65.5668 61.2225C65.5534 61.2075 65.5309 61.2 65.4993 61.2H64.8743C64.6659 61.2 64.5109 61.2417 64.4093 61.325C64.3093 61.4083 64.2593 61.5367 64.2593 61.71V62.49C64.2593 62.6633 64.3093 62.7917 64.4093 62.875C64.5109 62.9583 64.6659 63 64.8743 63H65.6618ZM64.9818 62.775C64.8901 62.775 64.8151 62.7692 64.7568 62.7575C64.6984 62.7458 64.6526 62.7275 64.6193 62.7025C64.5859 62.6758 64.5626 62.6425 64.5493 62.6025C64.5376 62.5608 64.5318 62.5108 64.5318 62.4525V61.7525C64.5318 61.6342 64.5584 61.55 64.6118 61.5C64.6651 61.45 64.7718 61.425 64.9318 61.425H65.3643V61.45H64.9318C64.7851 61.45 64.6859 61.4733 64.6343 61.52C64.5826 61.565 64.5568 61.6425 64.5568 61.7525V62.4525C64.5568 62.5608 64.5851 62.6375 64.6418 62.6825C64.7001 62.7275 64.8134 62.75 64.9818 62.75H65.4543V62.2725H65.4793V62.775H64.9818ZM66.3868 61.445L67.3068 62.48V61.425H67.3318V62.775H67.3068V62.5175L66.3618 61.4575C66.3601 61.4558 66.3576 61.4542 66.3543 61.4525C66.3526 61.4508 66.3509 61.45 66.3493 61.45C66.3476 61.45 66.3459 61.4508 66.3443 61.4525C66.3443 61.4542 66.3443 61.4558 66.3443 61.4575V62.775H66.3193V61.4525C66.3193 61.4425 66.3226 61.435 66.3293 61.43C66.3359 61.425 66.3426 61.4225 66.3493 61.4225C66.3559 61.4225 66.3618 61.4242 66.3668 61.4275C66.3718 61.4308 66.3784 61.4367 66.3868 61.445ZM66.5218 63C66.5534 63 66.5759 62.9933 66.5893 62.98C66.6043 62.965 66.6118 62.9417 66.6118 62.91V62.085L67.0393 62.6025V62.91C67.0393 62.9417 67.0459 62.965 67.0593 62.98C67.0743 62.9933 67.0976 63 67.1293 63H67.5043C67.5359 63 67.5584 62.9933 67.5718 62.98C67.5868 62.965 67.5943 62.9417 67.5943 62.91V61.29C67.5943 61.2583 67.5868 61.2358 67.5718 61.2225C67.5584 61.2075 67.5359 61.2 67.5043 61.2H67.1293C67.0976 61.2 67.0743 61.2075 67.0593 61.2225C67.0459 61.2358 67.0393 61.2583 67.0393 61.29V61.8225L66.5543 61.2675C66.5326 61.2425 66.5101 61.225 66.4868 61.215C66.4651 61.205 66.4384 61.2 66.4068 61.2H66.1468C66.1151 61.2 66.0918 61.2075 66.0768 61.2225C66.0634 61.2358 66.0568 61.2583 66.0568 61.29V62.91C66.0568 62.9417 66.0634 62.965 66.0768 62.98C66.0918 62.9933 66.1151 63 66.1468 63H66.5218ZM66.5218 63.025H66.1468C66.1068 63.025 66.0776 63.0158 66.0593 62.9975C66.0409 62.9792 66.0318 62.95 66.0318 62.91V61.29C66.0318 61.25 66.0409 61.2208 66.0593 61.2025C66.0776 61.1842 66.1068 61.175 66.1468 61.175H66.4068C66.4434 61.175 66.4743 61.1808 66.4993 61.1925C66.5243 61.2042 66.5493 61.2233 66.5743 61.25L67.0143 61.7525V61.29C67.0143 61.25 67.0234 61.2208 67.0418 61.2025C67.0601 61.1842 67.0893 61.175 67.1293 61.175H67.5043C67.5443 61.175 67.5734 61.1842 67.5918 61.2025C67.6101 61.2208 67.6193 61.25 67.6193 61.29V62.91C67.6193 62.95 67.6101 62.9792 67.5918 62.9975C67.5734 63.0158 67.5443 63.025 67.5043 63.025H67.1293C67.0893 63.025 67.0601 63.0158 67.0418 62.9975C67.0234 62.9792 67.0143 62.95 67.0143 62.91V62.6125L66.6368 62.155V62.91C66.6368 62.95 66.6276 62.9792 66.6093 62.9975C66.5909 63.0158 66.5618 63.025 66.5218 63.025Z" fill="#2D2D2D"/>
<path d="M56 56.5V56.9C56 56.9552 55.9552 57 55.9 57H53.1C53.0448 57 53 56.9552 53 56.9V53.5721C53 53.529 53.0275 53.4908 53.0684 53.4772L55.8684 52.5439C55.9331 52.5223 56 52.5705 56 52.6387V55.5" stroke="#2F2F2F" stroke-width="0.15"/>
<path d="M52.6799 53.3399C52.6799 53.3399 52.68 53.3399 52.68 53.3399L52.6799 53.3399ZM52.6911 53.3715C52.691 53.3715 52.691 53.3715 52.691 53.3715L52.6911 53.3715Z" fill="#F5F5F5" stroke="#2F2F2F" stroke-width="0.15"/>
<mask id="path-8-inside-1_1_3" fill="white">
<path d="M55.7689 51.151C55.7843 51.1384 55.805 51.1342 55.8241 51.14L61.3142 52.7849C61.3726 52.8024 61.3657 52.8872 61.3052 52.895V52.895C61.2974 52.8961 61.2894 52.8954 61.2818 52.8932L55.7897 51.2549C55.7436 51.2412 55.7317 51.1815 55.7689 51.151V51.151Z"/>
</mask>
<path d="M55.7689 51.151C55.7843 51.1384 55.805 51.1342 55.8241 51.14L61.3142 52.7849C61.3726 52.8024 61.3657 52.8872 61.3052 52.895V52.895C61.2974 52.8961 61.2894 52.8954 61.2818 52.8932L55.7897 51.2549C55.7436 51.2412 55.7317 51.1815 55.7689 51.151V51.151Z" fill="#F5F5F5"/>
<path d="M61.3142 52.7849L61.2711 52.9285L61.3142 52.7849ZM61.3052 52.895L61.3244 53.0438L61.3052 52.895ZM55.8241 51.14L55.8671 50.9963L55.8241 51.14ZM55.781 51.2837L61.2711 52.9285L61.3572 52.6412L55.8671 50.9963L55.781 51.2837ZM61.3247 52.7494L55.8326 51.1112L55.7468 51.3986L61.2389 53.0369L61.3247 52.7494ZM55.8326 51.1112C55.9018 51.1318 55.9197 51.2214 55.8639 51.2671L55.6739 51.0349C55.5436 51.1416 55.5855 51.3505 55.7468 51.3986L55.8326 51.1112ZM61.286 52.7463C61.299 52.7446 61.3122 52.7457 61.3247 52.7494L61.2389 53.0369C61.2666 53.0452 61.2957 53.0475 61.3244 53.0438L61.286 52.7463ZM61.2711 52.9285C61.1745 52.8996 61.1859 52.7592 61.286 52.7463L61.3244 53.0438C61.5455 53.0153 61.5708 52.7051 61.3572 52.6412L61.2711 52.9285ZM55.8671 50.9963C55.8003 50.9763 55.7279 50.9907 55.6739 51.0349L55.8639 51.2671C55.8407 51.286 55.8097 51.2922 55.781 51.2837L55.8671 50.9963Z" fill="#2F2F2F" mask="url(#path-8-inside-1_1_3)"/>
<path d="M56 55.8428V51.6344C56 51.5674 56.0646 51.5194 56.1287 51.5386L60.9287 52.9786C60.971 52.9913 61 53.0302 61 53.0744V56.9C61 56.9553 60.9552 57 60.9 57H56.1C56.0448 57 56 56.9553 56 56.9V56.5" stroke="#2F2F2F" stroke-width="0.15"/>
<path d="M55.5 57H56.5" stroke="#2F2F2F" stroke-width="0.15"/>
<path d="M57.1 53.075H58.9C58.9138 53.075 58.925 53.0862 58.925 53.1V53.9C58.925 53.9138 58.9138 53.925 58.9 53.925H57.1C57.0862 53.925 57.075 53.9138 57.075 53.9V53.1C57.075 53.0862 57.0862 53.075 57.1 53.075Z" fill="#F5F5F5" stroke="#2F2F2F" stroke-width="0.15"/>
<path d="M57.9 53C57.9 53.3905 57.9 53.6095 57.9 54" stroke="#2F2F2F" stroke-width="0.15"/>
<path d="M54.0888 53.7894L54.8888 53.3894C54.9054 53.3811 54.925 53.3932 54.925 53.4118V54.15C54.925 54.1638 54.9138 54.175 54.9 54.175H54.1C54.0862 54.175 54.075 54.1638 54.075 54.15V53.8118C54.075 53.8023 54.0804 53.7937 54.0888 53.7894Z" fill="#F5F5F5" stroke="#2F2F2F" stroke-width="0.15"/>
<path d="M57.1 55.075H60.4C60.4138 55.075 60.425 55.0862 60.425 55.1V56.3C60.425 56.3138 60.4138 56.325 60.4 56.325H57.1C57.0862 56.325 57.075 56.3138 57.075 56.3V55.1C57.075 55.0862 57.0862 55.075 57.1 55.075Z" fill="#F5F5F5" stroke="#2F2F2F" stroke-width="0.15"/>
<path d="M58 55C58 55.3645 58 56.0355 58 56.4" stroke="#2F2F2F" stroke-width="0.15"/>
<path d="M59.5 55C59.5 55.3645 59.5 56.0355 59.5 56.4" stroke="#2F2F2F" stroke-width="0.15"/>
<path d="M54.1 55.125H54.9C54.9138 55.125 54.925 55.1362 54.925 55.15V56.95C54.925 56.9638 54.9138 56.975 54.9 56.975H54.1C54.0862 56.975 54.075 56.9638 54.075 56.95V55.15C54.075 55.1362 54.0862 55.125 54.1 55.125Z" fill="#F5F5F5" stroke="#2F2F2F" stroke-width="0.15"/>
</svg>
